<svg xmlns="http://www.w3.org/2000/svg" xmlns:xlink="http://www.w3.org/1999/xlink" version="1.1" x="0px" y="0px" viewBox="0 0 100 125" style="enable-background:new 0 0 100 100;" xml:space="preserve"><g><path d="M0,49.662V39.043c11.917,0.894,23.706,5.222,33.794,13.181c13.275,10.473,21.129,25.27,23.144,40.81h-10.69   c-1.94-12.395-8.379-24.118-19.007-32.501C19.095,54.106,9.615,50.532,0,49.662z M10.84,81.373C7.562,78.787,3.837,77.152,0,76.426   v16.607h19.062C17.564,88.582,14.803,84.499,10.84,81.373z M22.672,66.354C15.881,60.997,8.008,57.954,0,57.108v10.666   c5.729,0.802,11.327,3.084,16.196,6.926c6.109,4.819,10.103,11.325,11.847,18.333h10.708   C36.879,82.848,31.442,73.272,22.672,66.354z M93.164,6.967H6.836C3.061,6.967,0,10.027,0,13.803v18.212l9.766,1.563V16.732h80.469   v66.535H62.509l1.953,9.766h28.702c3.775,0,6.836-3.061,6.836-6.836V13.803C100,10.027,96.939,6.967,93.164,6.967z"/></g><text x="0" y="115" fill="#000000" font-size="5px" font-weight="bold" font-family="'Helvetica Neue', Helvetica, Arial-Unicode, Arial, Sans-serif">Created by b farias</text><text x="0" y="120" fill="#000000" font-size="5px" font-weight="bold" font-family="'Helvetica Neue', Helvetica, Arial-Unicode, Arial, Sans-serif">from the Noun Project</text></svg>